<?xml version="1.0" encoding="UTF-8"?>
<svg id="Capa_5" xmlns="http://www.w3.org/2000/svg" version="1.1" viewBox="0 0 408 162.5">
  <!-- Generator: Adobe Illustrator 29.5.1, SVG Export Plug-In . SVG Version: 2.1.0 Build 141)  -->
  <defs>
    <style>
      .st0 {
        fill: #6a8546;
      }

      .st1 {
        fill: #b63035;
      }
    </style>
  </defs>
  <path class="st0" d="M216.64,130.99v21c-1.62.28-2.03-.55-2.01-2-7.1,5.83-15.33-1.67-11.27-9.53,2.27-4.4,6.78-3.87,10.78-2.47.43-2.64-1.55-7.68,2.5-7ZM208.01,139.12c-5.6,1.46-3.81,12.23,2.77,10.78,5.9-1.31,4.88-12.76-2.77-10.78Z"/>
  <path class="st0" d="M243.53,138.6c.19.35.19,1.8.11,1.89-.33.36-3.37-1.48-4.74-1.54-2.07-.1-4.51.49-3.01,3.05,1.02,1.73,8.79.91,8.78,5.74,0,5.89-10.64,4.99-11.46,1.92-.18-.66.13-1.55.69-1.67.41-.09,5.52,4.07,7.79,1.3,3.55-4.35-8.78-2.91-8.58-8.53.17-4.96,9.16-4.47,10.43-2.16Z"/>
  <path class="st0" d="M153.58,137.05c.4.35,3.13,8.45,3.83,9.94.26.55-.05,1.27.97,1.01.59-.15,3.87-10.56,4.31-10.94.34-.29,1.81.05,2.44-.06-.38,2.07-5.36,14.63-6.32,14.94-.67.22-1.49.19-1.93-.44-.55-1.88-6.34-13.95-5.75-14.5.62.11,2.11-.23,2.44.06Z"/>
  <path class="st0" d="M182.64,151.99c-.93.02-2.09.23-2.43-.82-.24-.74-.24-12.62,0-13.36.34-1.05,1.49-.84,2.43-.82l.25,2c1.38-1.76,3.05-2.27,5.25-2,1.24,3.3-5.5,2.13-5.5,5.25v9.75Z"/>
  <path class="st0" d="M173.14,136.99v14.25c0,.66-1.85.91-2.5.75v-15h2.5Z"/>
  <path class="st0" d="M224.14,151.99v-15c1.84-.11,2.3-.12,2.52,1.73.19,1.55.24,11.44-.09,12.45s-1.5.85-2.43.82Z"/>
  <rect class="st0" x="194.14" y="136.99" width="2" height="14.5"/>
  <path class="st0" d="M173.01,134.36c-1.2,1.2-2.9.31-2.77-1.49.22-3.09,4.86-.59,2.77,1.49Z"/>
  <path class="st0" d="M226.57,134.42c-.91,1.45-4.09-.53-2.71-2.46,1.27-1.77,3.87.61,2.71,2.46Z"/>
  <path class="st0" d="M193.7,134.42c-1.16-1.81,1.41-4.45,2.7-1.93,1.05,2.04-2,3.03-2.7,1.93Z"/>
  <g>
    <path class="st0" d="M290.64,53.74c.35-2.64,3.2-2.18,5.04-1.04,7.21,9.2,13.85,18.99,21.45,27.79l-.5-27.25c.38-2.13,3.36-1.01,5-1.25v37c-1.53-.16-3.52.5-4.74-.51-7.11-9.3-13.74-19.09-21.26-27.99v28.5h-5v-35.25Z"/>
    <polygon class="st0" points="206.14 51.99 206.14 56.99 185.14 56.99 185.14 68.49 203.64 68.49 203.64 72.99 185.14 72.99 185.14 84.49 206.64 84.49 206.67 88.69 205.16 89.25 180.64 88.99 180.64 51.99 206.14 51.99"/>
    <path class="st0" d="M365.14,88.99l-4.93-.06c-.81-1.81-4.79-12.56-5.89-12.88-2.75.28-5.29,1.4-7.68,2.69l-5.99,4.26c-2.68-7.35,6.31-10.29,12-11,.58-.6-5.24-12-5.51-14l-13.05,30.94-5.44.05,16.08-36.91c1.52-.06,3.92-.63,4.88.71l15.54,36.2Z"/>
    <path class="st0" d="M98.64,88.99c-1.35-.17-3.81.49-4.76-.48-1.19-1.22-4.41-11.87-5.04-12.05-3.73.16-7.63,1.67-10.65,3.83l-3.54,3.21c-2.62-7.58,6-10.73,12-11.51-1.62-4.87-4.4-9.08-5.76-14l-13.3,30.95-4.44.06,15.49-36.75c.9-.54,3.86-.59,4.45.55,5.22,12.02,11.23,23.86,15.55,36.2Z"/>
    <path class="st0" d="M170.13,60.49c-2.04-.73-3.37-2.44-5.5-3.24-23.27-8.8-28.37,31.28-2.29,27.7,2.58-.35,7.06-3.99,7.47-3.92,1.21.21,2.87,2.36,1.6,3.99-3.9,5.01-13.96,5.45-19.46,3.41-20.07-7.44-13.67-38.92,8.88-36.87,2.65.24,9.26,2.58,10.84,4.66,1.48,1.94-1.36,2.39-1.54,4.28Z"/>
    <path class="st0" d="M29.14,39.49c-9.39-10.69-3.8-24.35,7.75-30.45,6.36,8.21,8.85,20.79-.5,27.95-.61.47-3.45,2.22-4.06,2.45-.8.31-.62-.1-.81-.57-1.2-2.85.05-9.7.98-12.77.28-.94,2.32-4.9,2.14-5.11-.75-.88-1.1.69-1.29.94-1.39,1.87-4.21,7.66-4.21,9.8v7.75Z"/>
    <path class="st0" d="M11.89,30.99c9.24.97,15.93,8.62,15,18-3.38-5.28-8.15-9.33-14.25-11-.28,1.34.35.86.99,1.24,5.22,3.12,9,5.91,11.51,11.75-13.22,2.73-20.4-8.05-21-20,2.5.19,5.3-.26,7.75,0Z"/>
    <path class="st0" d="M219.64,51.99v32.5h20l-.05,4.45c-.84.98-21.57.73-24.45.05v-37h4.5Z"/>
    <path class="st0" d="M53.63,36.01c-1.68,9.01-10.41,16.91-19.49,11.23,3.55-1.09,7.12-2.52,9.5-5.5-1.71-.49-3.19,1.43-4.86,2.14-.73.31-4.21,1.5-4.64,1.11,1.84-9.68,11.11-11.58,19.49-8.98Z"/>
    <g>
      <path class="st1" d="M362.64,118.49c1.98,4.33,8.12,7.62,12.75,7.99,1.76.14,5.02-.65,5.89-.42.45.12,3.19,2.85,3.62,3.42,3.9,5.09,3.51,11.6,5.24,17.51-3.24.12-3.39-3.79-4.57-5.67-2.2-3.51-7.08-2.74-10.55-3.45-4.74-.97-7.89-2.21-11.08-5.92-.36-.42-2.5-5.1-2.29-2.46-.21-2.22-.87-4.78-.54-7.28.03-.21,1.34-2.35,1.54-3.72Z"/>
      <path class="st1" d="M365.14,111.99c6.42-6.13,14.41-3.65,22.25-2.99.45.04,1.69-.31,1.24.74-.41.95-5.22,6-6.25,6.76-6.12,4.5-13.03,2.99-19.75,1,.02-.15-.46-.52-.46-.76s.71-.2.79-.38c.66-1.62.93-3.17,2.17-4.36Z"/>
      <path class="st1" d="M376.39,120.99c4.24-.57,9.14-4.48,11.74-7.76,2.06-2.6,3.29-7.09,6.37-8.62,5.88-2.91,9.26,6.34,7.13,10.88-7.1-9.46-9.54.99-14.03,5.22-6.48,6.09-14.58,4.94-21.46.28.06-1.32,1.96,0,2.25,0,2.42,0,5.75.3,8,0Z"/>
      <path class="st1" d="M390.63,135.49c-2.4-.92-2.31-3.38-3.29-4.95-.64-1.02-4.03-5.07-3.7-5.54,5.26-1.24,7.09-6.97,10.99-10.01l-3.86,15.38-.14,5.12Z"/>
      <path class="st1" d="M402.63,128.49c-1.35,1.27-1-3.51-1.12-4.12-.59-3.01-2.38-7.01-5.87-6.88,1.72-4.9,6.45-1.49,7.75,2,.73,1.97.7,7.62-.76,9Z"/>
      <path class="st1" d="M394.13,126.99c-.82,5.09,2.06,8.34,5.26,3l1.25.76c-.53,2.27-3.21,6.31-5.78,6.24-2.73-.07-3.95-8.89-.73-10Z"/>
      <path class="st1" d="M389.64,136.99c3.04,2.06,6.54,2.23,9.25-.5-.03,7.35-8.75,9.69-9.25.5Z"/>
      <path class="st1" d="M396.63,123.99c.06.38-.47,5.91,1,4.5.63-.61.71-5,.25-5.99-1.12-2.42-2.71.48-2.99.48-1.35.02-.46-3.55,2-3.54,4.68.02,2.83,9.62,0,11.55-1.73.36-1.91-6.27-.25-7Z"/>
    </g>
    <path class="st0" d="M361.64,129.49c.46,4.85.54,7.62,3.26,11.99-4.14-2.45-6.33-7.07-6.76-11.76-.08-.91.41-3.09.3-3.26-.34-.51-3.19-1.04-4.26-1.75-1.87-1.23-2.4-3.57-4.14-4.86l-40.64-7.37c-1.7-.35.16,3.64-1.49,3-1.15-.45-3-2.77-4.28-3.22-.43-.15-4.33-.77-4.73-.77h-20.75c2.02,2.42,3.99,5.17,5.1,8.15.4,1.09,1.9,6.29,1.9,7.1v10.25l1.45-4.3c.4-4.93-.07-9.48-1.44-14.19.87-.23,1,.36,1.5.74,8.17,6.27,8.16,14.62,4.49,23.5-.45,1.09-2.77,6.44-3.71,6.22-.24-.06-3.53-2.57-4.03-2.98-7.13-5.94-10.57-14.84-6.78-23.75,1.54-3.62,4.42-4.37-.02-7.96-5.84-4.71-15.77-2.86-22.74-3.26-6.75-.39-13.59-1.27-20.22-2.52-.3,6.03-2.64,1.01-5.04-.21s-15.71-2.48-19.22-2.78c-9.16-.8-18.34-.74-27.52-.98-4.48-.12-4.4-2.37-5.98,3.48l-4.73-4.27c-16.27-1.26-32.53-.74-48.78.27-1.37-.13-2.71,4.01-3,4.01-1.87-.4-2.01-3.2-4.01-3.49l-37.9-.03c-3.2,7.42-3.27.58-6.09.03-7.27-.33-14.75-.08-21.99-.51-3.45-.21-8.5-.37-11.65-1.35-3.86-1.2-8.1-5.17-8.1-9.4v-41.25h17.75c.76,0,4.43,1.71,5.22,2.28,4.81,3.53,4.79,11.08.54,14.97,6.92,3.89,7.51,13.94.66,18.17-.63.39-3.41,1.58-3.92,1.58h-15.75c-.49,6.74,2.74,9.34,9.26,9.99,7.54.76,15.42.3,23.01.49,7.7.19,17.96,1.52,25.5.55,3.04-.39,3.52-4.53,3.98-4.53,2.42.78,2.19,3.66,4.97,4.03,5.69.75,16.43.18,22.55,0,3.78-.12,8.17-.81,11.98-1.02,2.24-.12,4.51.08,6.74-.01l-10.26-7.48c-2.42-1.21-11.51-15.01-12.49-15.01h-9.25v13h-4.5v-37h17.75c.38,0,2.65.97,3.27,1.23,9.94,4.25,8.89,19.18-1.51,22.01l8.53,11.47c15.63,14.85,39.04,12.55,59.24,13.26,3.62.13,8.19,1.16,11.87.41,1.11-.23,5.38-3.43,5.86-2.88v4c4.05.06,8.18.51,12.19,1.06,6.01.82,22.47,4.45,27.33,3.2.98-.25,5.09-3.2,5.48-2.76v3.5c10.22.96,20.51.23,30.77.48,6.78.16,15.53,1.65,22,1.45,1.32-.04,5.54-3.16,6.22-2.43.08,1.19-.48,2.9.85,3.4l34.93,6.62c1.65-.04,3.07-2.04,5.09-2.41s4.1.04,6.11-.14c.75-5.28,5-11.16,10.52-11.98l-5.51,6.23-1.48,4.27c-1.24,1.19-1.52,2.74-2.17,4.36-.08.19-.79.15-.79.38s.48.61.46.76c-.04.32.05.68,0,1-.2,1.37-1.51,3.51-1.54,3.72-.33,2.5.33,5.07.54,7.28ZM34.89,56.49l-.75.75v10l.75.75h12c.68,0,3.23-1.51,3.76-2.24,1.46-2.03,1.47-5.46-.24-7.28-.55-.59-2.93-1.98-3.52-1.98h-12ZM110.14,56.99v14.5h12.75c3.18,0,6.28-4.66,6.2-7.7-.25-9.62-12.93-6.6-18.95-6.8ZM34.14,84.49h15.75c.55,0,2.7-1.65,3.17-2.33,1.78-2.52,1.51-6.43-.91-8.44-.72-.6-3.02-1.73-3.77-1.73h-13.5l-.75.75v11.75Z"/>
    <g>
      <path class="st1" d="M271.63,59.99c-1.08-.77-1.42-2.24-2.48-3.26-3.07-2.95-8.49-3.76-11.76-.72l-2.01-2.02,1.74,3.5c-6.11-2.22-10.45,2.86-11.01,8.5-.48.36-3.89-4.78-3.98-5.78-.28-2.99,2.74-2.33,4.51-3.94,1.62-1.48,1.82-5.1,4.71-4.79,1.16.12,1.63,1.78,2.98,1.55.36-.06.48-1.11,1.07-1.49.82-.52,1.97-.38,2.7-.82,1.2-.71.63-2.06,2.75-2.28,3.01-.31,4.13,2.2,6.12,2.45,1.66.2,3.27-1.42,4.93.56s.47,6.25-.3,8.54Z"/>
      <path class="st1" d="M261.14,72.5c1.01.77,1.33,1.85,2.53,2.71,1.01.72,5.5,2.17,4.22.28-.66-.97-5.24-1.63-5.76-3.99,1.36.15,2.3.85,3.75,1,2.71.27,7.53-1.98,8.24,1.77.64,3.41-1.39,6.15-4.14,7.83-7.29,4.46-7.99-4.27-8.84-9.59Z"/>
      <path class="st1" d="M256.64,71c.56.54-3.94,5.52-1,6.5.13-2.29,1.6-4.32,3.5-5.5-1.36,2.92,1.01,9.3-1,11.24-3.76,3.64-12.38-5.57-9.53-9.53,1.16-1.6,6.07-2.44,8.03-2.71Z"/>
      <path class="st1" d="M264.14,68.99l3.74-2.5c1.68-2.36,3.94-4.22,4.99-7.01,1.11-2.94-.38-5,3.68-3.66,3.02,1,7.65,10.23,4.09,11.95-.53.26-4.95-3.58-9.37-1.89-2.15.82-4.15,3.86-7.14,3.11Z"/>
      <path class="st1" d="M267.54,88.08c.98,1.67-2.15,4.22-3.7,4.41-.66.08-7.18-.53-7.74-.71-.97-.32-2.75-2.38-2.26-3.28.43-.8,2.91-1.87,3.81-2.73,3.89-3.74,1.91-6.58,1.99-11.27,1.42.97,1.09,3.4,1.64,5.11.77,2.39,1.7,4.26,3.35,6.15.71.82,2.82,2.17,2.91,2.33Z"/>
      <path class="st1" d="M264.14,66.99c-.27-2.22.97-5.37-1.5-6.5-.12,1.54.18,3.19-.04,4.72-.06.4-.89,2.63-1.46,2.78.86-3.53-3.83-8.36-2.26-11.51,1.7-3.41,12.14-.22,11.18,5.14-.31,1.72-4.09,5.01-5.92,5.37Z"/>
      <path class="st1" d="M255.14,69.5l-7.76,2.98c-1.46.35-4.2,4.32-5.06,4.48-3.14.56-4.32-11.82-.34-12.91,1.59-.43,2.22,2.2,3.16,3.19,2.83,2.97,6.27,2.74,9.99,2.26Z"/>
      <path class="st1" d="M266.14,84.5c5.05-1.04,10.06-4.05,9.01-10,1.85,1.42,4.92,4.27,4.5,6.73-.33,1.97-2.73,1.99-3.97,3.06-1.46,1.27-1.73,4.46-3.98,4.97-1.75.4-6.44-3.79-5.56-4.75Z"/>
      <path class="st1" d="M246.64,75c.3,4.89,4.18,10.39,9.5,10-.86,1.04-3.75,3.6-4.88,3.89-3.39.86-3.5-2.72-4.91-4.36-1.59-1.85-4.69-1.38-4.22-4.75.16-1.17,3.79-5.52,4.5-4.79Z"/>
      <path class="st1" d="M273.02,66.59c2.76-.52,9.59,3.2,9.04,6.53-.21,1.28-1.65,3.96-3.18,2.91-2.2-1.51-3.19-4.17-6.38-5.14-1.11-.34-4.41.17-4.35-.64.06-.72,3.83-3.46,4.87-3.66Z"/>
      <path class="st1" d="M249.39,68.49c-4.64-1.28,1.01-12.55,6.55-10.05,2.27,1.03,3.44,6.53,4.19,8.8-2.38-1.22-4.6-3.66-7.49-2.25,1.06,1.87,4.26.64,4,3.49-1.98-.35-5.53.48-7.25,0Z"/>
    </g>
  </g>
</svg>